<?xml version="1.0" encoding="UTF-8"?>
<svg id="Layer_2" data-name="Layer 2" xmlns="http://www.w3.org/2000/svg" viewBox="0 0 415.33 415.28">
  <defs>
    <style>
      .cls-1 {
        fill: #2f5233;
      }
    </style>
  </defs>
  <g id="Layer_1-2" data-name="Layer 1">
    <g>
      <path class="cls-1" d="M89.4,177.26h29.92l-14.2-6.97c-3.3-1.61-4.73-5.63-3.04-9.02,1.61-3.31,5.63-4.64,8.93-3.04l21.34,10.45-16.43-48.05c-1.16-3.48.71-7.23,4.2-8.48,3.48-1.16,7.32.71,8.48,4.2l16.43,48.05,10.45-21.35c1.61-3.31,5.63-4.73,9.02-3.13,3.3,1.7,4.65,5.72,3.04,9.02l-13.93,28.31h60.55c2.05-11.52,4.73-22.42,8.04-32.51-.8-.54-1.7-.98-2.59-1.43-2.86-1.43-4.73-4.2-5.09-7.41-2.06-21.52-14.56-41.26-34.3-51.98-2.68-1.52-4.46-4.11-4.82-7.15-5.45-42.33-49.39-68.59-89.22-53.77-39.12,14.56-54.75,60.91-34.12,95.92,1.52,2.59,1.7,5.72.45,8.48-1.07,2.41-1.96,4.73-2.68,7.23h8.31c17.24,0,31.26,14.02,31.26,31.26v11.34Z"/>
      <path class="cls-1" d="M365.2,134.66c-4.02-15.9-15-27.87-32.15-36.44-5.98-3.04-12.41-5.27-18.93-6.79-25.19-5.63-45.73.45-60.55,20.63-1.88,2.41-3.57,5-5.27,7.77l35.1,12.5c3.48,1.25,5.27,5.09,4.02,8.57-1.25,3.57-5.18,5.27-8.57,4.11l-37.15-13.31c-6.25,13.13-10.9,28.49-14.11,45.55h98.33v-11.34c0-17.24,14.02-31.26,31.26-31.26h8.04Z"/>
      <path class="cls-1" d="M341.89,100.09c11.34,2.68,26.44,4.02,39.83-1.96,18.49-8.22,28.76-28.13,33.05-38.76,1.61-3.84-.36-8.22-4.29-9.65-6.34-2.41-16.61-5.27-27.78-5.54-2.21,25.19-18.69,43.27-40.82,55.91Z"/>
      <path class="cls-1" d="M306.08,87.23c-8.98-23.22-10.49-48.45,4.02-69.13-8.84-6.79-18.67-10.99-25.1-13.31-3.93-1.34-8.22.8-9.38,4.73-3.39,10.99-8.13,32.96.89,51,6.61,13.13,19.11,21.61,29.56,26.7Z"/>
      <path class="cls-1" d="M366.8,55.08c6.82-19.07-.54-40.3-5.23-50.75-1.71-3.8-6.21-5.41-9.94-3.56-10.25,5.1-29.41,16.84-36.23,35.91-9.5,26.56,8.49,57.28,8.49,57.28,0,0,33.41-12.33,42.91-38.89Z"/>
      <path class="cls-1" d="M89.37,275.55h236.57v-84.88H89.37v84.88Z"/>
      <rect class="cls-1" x="89.4" y="328.11" width="236.5" height="87.17"/>
      <path class="cls-1" d="M397.44,148.06h-40.28c-9.83,0-17.86,8.04-17.86,17.86v249.36h49.21c14.83,0,26.79-11.97,26.79-26.79v-222.57c0-9.82-7.95-17.86-17.86-17.86ZM377.35,373.93c-4.91,0-8.93-4.02-8.93-8.93s4.02-8.93,8.93-8.93,8.93,4.02,8.93,8.93-4.02,8.93-8.93,8.93ZM377.35,242.1c-4.91,0-8.93-4.02-8.93-8.93s4.02-8.93,8.93-8.93,8.93,4.02,8.93,8.93-4.02,8.93-8.93,8.93Z"/>
      <path class="cls-1" d="M58.14,148.06H17.86c-9.83,0-17.86,8.04-17.86,17.86v222.57c0,14.83,12.06,26.79,26.79,26.79h49.21v-249.36c0-9.82-7.95-17.86-17.86-17.86ZM38.05,373.93c-4.91,0-8.93-4.02-8.93-8.93s4.02-8.93,8.93-8.93,8.93,4.02,8.93,8.93-4.02,8.93-8.93,8.93ZM38.05,242.1c-4.91,0-8.93-4.02-8.93-8.93s4.02-8.93,8.93-8.93,8.93,4.02,8.93,8.93-4.02,8.93-8.93,8.93Z"/>
    </g>
  </g>
</svg>