<?xml version="1.0" encoding="UTF-8"?>
<svg id="Layer_2" data-name="Layer 2" xmlns="http://www.w3.org/2000/svg" viewBox="0 0 55.95 55.94">
  <defs>
    <style>
      .cls-1 {
        fill: #fff;
      }
    </style>
  </defs>
  <g id="_11" data-name="11">
    <g>
      <path class="cls-1" d="M12.04,23.88h4.03l-1.91-.94c-.45-.22-.64-.76-.41-1.22.22-.45.76-.63,1.2-.41l2.88,1.41-2.21-6.47c-.16-.47.1-.97.57-1.14.47-.16.99.1,1.14.57l2.21,6.47,1.41-2.88c.22-.45.76-.64,1.22-.42.45.23.63.77.41,1.22l-1.88,3.81h8.16c.28-1.55.64-3.02,1.08-4.38-.11-.07-.23-.13-.35-.19-.39-.19-.64-.57-.69-1-.28-2.9-1.96-5.56-4.62-7-.36-.2-.6-.55-.65-.96-.73-5.7-6.65-9.24-12.02-7.24-5.27,1.96-7.38,8.21-4.6,12.92.2.35.23.77.06,1.14-.14.32-.26.64-.36.97h1.12c2.32,0,4.21,1.89,4.21,4.21v1.53Z"/>
      <path class="cls-1" d="M49.2,18.14c-.54-2.14-2.02-3.75-4.33-4.91-.81-.41-1.67-.71-2.55-.91-3.39-.76-6.16.06-8.16,2.78-.25.32-.48.67-.71,1.05l4.73,1.68c.47.17.71.69.54,1.16-.17.48-.7.71-1.16.55l-5.01-1.79c-.84,1.77-1.47,3.84-1.9,6.14h13.25v-1.53c0-2.32,1.89-4.21,4.21-4.21h1.08Z"/>
      <path class="cls-1" d="M46.06,13.48c1.53.36,3.56.54,5.37-.26,2.49-1.11,3.87-3.79,4.45-5.22.22-.52-.05-1.11-.58-1.3-.85-.32-2.24-.71-3.74-.75-.3,3.39-2.52,5.83-5.5,7.53Z"/>
      <path class="cls-1" d="M41.23,11.75c-1.21-3.13-1.41-6.53.54-9.31-1.19-.91-2.51-1.48-3.38-1.79-.53-.18-1.11.11-1.26.64-.46,1.48-1.09,4.44.12,6.87.89,1.77,2.57,2.91,3.98,3.6Z"/>
      <path class="cls-1" d="M49.41,7.42c.92-2.57-.07-5.43-.7-6.84-.23-.51-.84-.73-1.34-.48-1.38.69-3.96,2.27-4.88,4.84-1.28,3.58,1.14,7.72,1.14,7.72,0,0,4.5-1.66,5.78-5.24Z"/>
      <path class="cls-1" d="M12.04,37.12h31.87v-11.43H12.04v11.43Z"/>
      <rect class="cls-1" x="12.04" y="44.2" width="31.86" height="11.74"/>
      <path class="cls-1" d="M53.54,19.94h-5.43c-1.32,0-2.41,1.08-2.41,2.41v33.59h6.63c2,0,3.61-1.61,3.61-3.61v-29.98c0-1.32-1.07-2.41-2.41-2.41ZM50.83,50.37c-.66,0-1.2-.54-1.2-1.2s.54-1.2,1.2-1.2,1.2.54,1.2,1.2-.54,1.2-1.2,1.2ZM50.83,32.61c-.66,0-1.2-.54-1.2-1.2s.54-1.2,1.2-1.2,1.2.54,1.2,1.2-.54,1.2-1.2,1.2Z"/>
      <path class="cls-1" d="M7.83,19.94H2.41c-1.32,0-2.41,1.08-2.41,2.41v29.98c0,2,1.62,3.61,3.61,3.61h6.63V22.35c0-1.32-1.07-2.41-2.41-2.41ZM5.13,50.37c-.66,0-1.2-.54-1.2-1.2s.54-1.2,1.2-1.2,1.2.54,1.2,1.2-.54,1.2-1.2,1.2ZM5.13,32.61c-.66,0-1.2-.54-1.2-1.2s.54-1.2,1.2-1.2,1.2.54,1.2,1.2-.54,1.2-1.2,1.2Z"/>
    </g>
  </g>
</svg>