<?xml version="1.0" encoding="UTF-8"?>
<svg id="Layer_2" data-name="Layer 2" xmlns="http://www.w3.org/2000/svg" viewBox="0 0 50.71 49.1">
  <defs>
    <style>
      .cls-1 {
        fill: #fff;
      }
    </style>
  </defs>
  <g id="_11" data-name="11">
    <g>
      <path class="cls-1" d="M30.55,15.35c.12-.43-.13-.87-.56-.99-.43-.12-.87.13-.99.56-.93,3.28-1.34,6.62-1.23,9.95-2.25.18-4.19,1.41-5.32,3.22-2-.22-3.84.32-5.32,1.44.44.12,5.11-.77,8.79,3.69.17.19.41.31.67.31h5.78c1.93,0,3.57,1.26,4.15,2.99l.98.21,4.52-1.74c-.25-4.02-3.75-7.08-7.77-6.81-1.03-1.73-2.81-2.95-4.88-3.26,0-.04.02-.07.02-.1-.1-3.16.29-6.34,1.17-9.46Z"/>
      <path class="cls-1" d="M28.75,15.13c-1.05-1.34-4.1-5.05-6.51-6.31-.39-.21-.55-.69-.34-1.09.21-.4.69-.55,1.09-.34,2.52,1.31,5.45,4.76,6.75,6.39-.14-2.27-.81-6.88-3.88-9.94C22.9.89,18.51.17,16.17,0c-.9-.06-1.64.67-1.57,1.58.18,2.35.91,6.73,3.87,9.68,3.24,3.23,8.18,3.78,10.29,3.87Z"/>
      <path class="cls-1" d="M50.42,37.42c-1.65-1.88-3.82-2.32-6.47-1.45l-7.3,2.81c-.09,1.88-1.65,3.38-3.55,3.38h-13.47c-.44,0-.8-.36-.8-.8s.36-.8.8-.8h13.47c.15,0,.31-.04.47-.11.88-.39,1.44-1.29,1.52-2.25.21-1.56-1.05-3.06-2.74-3.06h-5.78c-.74,0-1.44-.33-1.9-.9-1.67-2.02-3.9-3.1-6.57-3.1h-8.56v13.81l11.15,3.47c3.61,1.13,7.48.88,10.91-.69,5.87-2.68,14.94-6.83,18.36-8.39.74-.34.99-1.3.45-1.91Z"/>
      <rect class="cls-1" y="27.88" width="7.93" height="20.66" rx="2.15" ry="2.15"/>
      <path class="cls-1" d="M34.37,9.24c.4-.19.88-.02,1.07.38.19.4.02.88-.38,1.07-1.52.72-3.41,3.13-4.3,4.43,1.87-.09,6-.6,8.72-3.31,2.53-2.53,3.17-6.29,3.32-8.3.06-.78-.57-1.41-1.35-1.35-2.01.14-5.78.76-8.31,3.29-2.5,2.49-3.15,6.18-3.31,8.21.98-1.34,2.81-3.59,4.54-4.42Z"/>
    </g>
  </g>
</svg>