<?xml version="1.0" encoding="UTF-8"?>
<svg id="Layer_2" data-name="Layer 2" xmlns="http://www.w3.org/2000/svg" viewBox="0 0 58.09 53.8">
  <defs>
    <style>
      .cls-1 {
        fill: #fff;
      }
    </style>
  </defs>
  <g id="_11" data-name="11">
    <g id="_728_Agriculture_farm_farming_tractor" data-name="728, Agriculture, farm, farming, tractor">
      <g>
        <path class="cls-1" d="M8.28,11.2c1.01,0,1.92-.8,1.92-1.9s-.81-1.9-1.92-1.9-1.92.9-1.92,1.9.81,1.9,1.92,1.9Z"/>
        <path class="cls-1" d="M17.77,5c1.41,0,2.52-1.1,2.52-2.5s-1.11-2.5-2.52-2.5-2.52,1.1-2.52,2.5,1.11,2.5,2.52,2.5Z"/>
        <path class="cls-1" d="M8.28,43.7c-1.01,0-1.92.8-1.92,1.9s.81,1.9,1.92,1.9,1.92-.8,1.92-1.9-.91-1.9-1.92-1.9Z"/>
        <polygon class="cls-1" points="37.97 15 31.41 15 29.29 21.2 39.08 21.2 37.97 15"/>
        <path class="cls-1" d="M44.24,36.9c-2.42,0-4.34,1.9-4.34,4.3s1.92,4.3,4.34,4.3,4.34-1.9,4.34-4.3-1.92-4.3-4.34-4.3Z"/>
        <path class="cls-1" d="M57.47,52.5h-7.78c4.24-2,7.17-6.3,7.17-11.3,0-6.9-5.66-12.5-12.62-12.5s-12.62,5.6-12.62,12.5c0,4.9,2.93,9.2,7.17,11.3H12.62c2.32-1.4,3.84-4,3.84-6.9v-.6h10.81c.2,0,.3-.1.51-.2.2-.1.2-.3.2-.5-.1-.6-.1-1.2-.1-1.8,0-5.5,2.52-10.5,6.87-13.9h0c3.13-2.4,6.87-3.6,10.81-3.6.81,0,1.72.1,2.52.2.2,0,.4,0,.5-.2.1-.1.2-.3.2-.5l-2.22-14.5h2.12c.3,0,.61-.3.61-.6s-.3-.6-.61-.6h-25.35c-.3,0-.61.3-.61.6s.3.6.61.6h2.63l-8.08,17.5h-6.87c.2-.4.3-.8.3-1.3v-3.1c0-1.2-.81-2.1-1.92-2.4v-2h1.31c.3,0,.61-.3.61-.6s-.3-.6-.61-.6h-1.92c-.3,0-.61.3-.61.6v2.6c-1.11.3-1.92,1.3-1.92,2.4v3.1c0,.5.1.9.3,1.3h-1.21c-2.93,0-5.35,2.4-5.35,5.3v11.6c0,.1,0,.2.1.3,0,.3-.1.7-.1,1,0,4.5,3.64,8.1,8.18,8.1h49.28c.3,0,.61-.3.61-.6.1-.5-.2-.7-.61-.7ZM22.12,41.2h-2.52c-.3,0-.61-.3-.61-.6s.3-.6.61-.6h2.52c.3,0,.61.3.61.6.1.3-.2.6-.61.6ZM22.12,37.5h-5.05c-.3,0-.61-.3-.61-.6s.3-.6.61-.6h5.05c.3,0,.61.3.61.6s-.2.6-.61.6ZM27.87,21.6l2.52-7.5c.1-.3.3-.4.61-.4h7.57c.3,0,.61.2.61.5l1.21,7.4v.2c0,.3-.3.6-.61.6h-11.31c-.2,0-.4-.1-.5-.3-.1-.1-.2-.3-.1-.5ZM1.31,33.7v-1.3h28.18c-.3.4-.5.8-.71,1.3H1.31ZM8.28,48.7c-1.72,0-3.13-1.4-3.13-3.1s1.41-3.1,3.13-3.1,3.13,1.4,3.13,3.1-1.41,3.1-3.13,3.1ZM44.24,46.7c-3.03,0-5.55-2.5-5.55-5.5s2.52-5.5,5.55-5.5,5.55,2.5,5.55,5.5-2.52,5.5-5.55,5.5Z"/>
        <polygon class="cls-1" points="50.19 3.81 51.98 2.04 53.76 3.81 51.98 5.57 50.19 3.81"/>
        <polygon class="cls-1" points="32.46 3.53 34.24 1.76 36.03 3.53 34.24 5.3 32.46 3.53"/>
        <path class="cls-1" d="M16.36,10c.73,0,1.31.58,1.31,1.3s-.59,1.3-1.31,1.3-1.31-.58-1.31-1.3.59-1.3,1.31-1.3Z"/>
      </g>
    </g>
  </g>
</svg>