<?xml version="1.0" encoding="UTF-8"?>
<svg id="Layer_2" data-name="Layer 2" xmlns="http://www.w3.org/2000/svg" viewBox="0 0 414.75 369.19">
  <defs>
    <style>
      .cls-1 {
        fill: #fff;
      }
    </style>
  </defs>
  <g id="Layer_1-2" data-name="Layer 1">
    <g>
      <path class="cls-1" d="M406.81,355.84h-26.26c4.03-2.02,7.89-4.33,11.37-7.14l-5.67-5.67c-2.61-2.61-2.61-6.83,0-9.44,2.61-2.61,6.83-2.61,9.44,0l5.66,5.66c7.29-9.06,12.11-20.18,13.41-32.36h-8.01c-3.68,0-6.67-2.99-6.67-6.67s2.99-6.67,6.67-6.67h8c-1.3-12.19-6.12-23.31-13.41-32.36l-5.66,5.66c-2.61,2.61-6.83,2.61-9.44,0-2.61-2.61-2.61-6.83,0-9.44l5.66-5.66c-9.04-7.3-20.16-12.12-32.36-13.42v8.02c0,3.68-2.99,6.67-6.67,6.67s-6.67-2.99-6.67-6.67v-8.03c-12.19,1.29-23.32,6.11-32.39,13.41l5.68,5.68c2.61,2.61,2.61,6.83,0,9.44-2.61,2.61-6.83,2.61-9.44,0l-5.69-5.69c-7.31,9.05-12.15,20.19-13.46,32.39h8.09c3.68,0,6.67,2.99,6.67,6.67s-2.99,6.67-6.67,6.67h-8.09c1.3,12.19,6.14,23.33,13.46,32.39l5.69-5.69c2.61-2.61,6.83-2.61,9.44,0,2.61,2.61,2.61,6.83,0,9.44l-5.69,5.69c3.47,2.8,7.32,5.1,11.35,7.12H123.25c9.28-3.75,17.81-8.94,25.26-15.37l-8.45-8.01c-2.76-2.58-2.85-6.76-.35-9.43,2.58-2.67,6.76-2.85,9.43-.27l8.81,8.19c12.01-14.06,19.75-32.03,21.27-51.7h-11.84c-3.65,0-6.67-2.94-6.67-6.67s3.02-6.67,6.67-6.67h11.84c-1.51-19.67-9.25-37.55-21.27-51.7l-8.81,8.28c-1.24,1.25-2.94,1.78-4.54,1.78-6.32,0-8.87-7.56-4.54-11.48l8.45-8.01c-14.24-12.37-32.3-20.29-52.23-21.71v11.75c0,3.74-3.03,6.67-6.67,6.67s-6.67-2.94-6.67-6.67v-11.75c-19.75,1.42-37.82,9.25-51.97,21.45l8.37,8.36c4.2,4.34,1.11,11.39-4.72,11.39-1.69,0-3.38-.62-4.71-1.96l-8.37-8.36c-12.19,14.24-20.02,32.21-21.54,51.97h11.84c3.74,0,6.67,3.03,6.67,6.67s-2.94,6.67-6.67,6.67H0c1.51,19.67,9.17,37.46,21.18,51.61l8.9-8.19c2.76-2.49,7.03-2.31,9.43.44,2.49,2.67,2.31,6.94-.36,9.43l-8.54,7.74c7.47,6.54,16.02,11.78,25.33,15.55H8.91c-3.68,0-6.67,2.99-6.67,6.67s2.99,6.67,6.67,6.67h397.9c3.68,0,6.67-2.99,6.67-6.67s-2.99-6.67-6.67-6.67ZM351.83,274.88c14.06,0,25.36,11.39,25.36,25.36s-11.3,25.27-25.36,25.27-25.27-11.3-25.27-25.27,11.3-25.36,25.27-25.36ZM345.2,354.1c0-3.68,2.99-6.67,6.67-6.67s6.67,2.99,6.67,6.67v1.74h-13.35v-1.74ZM88.61,236c20.2,0,36.57,16.37,36.57,36.57s-16.37,36.57-36.57,36.57-36.57-16.37-36.57-36.57,16.37-36.57,36.57-36.57ZM81.93,350.34c0-3.65,3.03-6.67,6.67-6.67s6.67,3.03,6.67,6.67v5.5h-13.35v-5.5Z"/>
      <path class="cls-1" d="M24.89,190.79c17.53-13.79,39.69-21.98,63.71-21.98,67.45,0,116.54,63.6,100.91,127.6h26.34c2.67-56.24-17.17-97.26-47.16-121.91-41.91-34.67-102.39-36.4-148.96-7.47-4.18,2.58-5.25,8.28-2.49,12.37l7.65,11.39Z"/>
      <path class="cls-1" d="M363.86,142.14h-37.07v-43.89c0-4.84-3.97-8.73-8.81-8.73h-1.55v-35.94c0-3.8,1.73-7.34,4.75-9.76l11.75-9.16c2.59-2.07,3.11-5.79,1.04-8.38-1.99-2.59-5.79-3.11-8.38-1.04l-11.75,9.16c-5.96,4.67-9.33,11.67-9.33,19.18v35.94h-1.56c-4.84,0-8.81,3.89-8.81,8.73v43.89h-43.98l-18.84-113.45h5.01c4.93,0,8.9-3.97,8.9-8.9v-10.89c0-4.93-3.97-8.9-8.9-8.9H78.54c-4.92,0-8.9,3.97-8.9,8.9v10.89c0,4.93,3.98,8.9,8.9,8.9h6.05v104.9c77.94-3.39,149.25,56.92,144.64,162.88h47.52c1.99-39.75,34.91-71.37,75.09-71.37,7.78,0,15.29,1.12,22.38,3.37l15.21-52.19c5.01-17.11-7.78-34.13-25.58-34.13ZM207.2,114.75h-82.78c-2.51,0-4.49-2.07-4.49-4.49v-58.41c0-2.33,1.99-4.41,4.49-4.41h73.1c2.16,0,3.97,1.64,4.41,3.72l9.68,58.41c.43,2.68-1.64,5.18-4.41,5.18ZM304.58,220.16h-47.09c-3.63,0-6.65-2.94-6.65-6.65s3.02-6.74,6.65-6.74h47.09c3.63,0,6.65,3.02,6.65,6.74s-3.02,6.65-6.65,6.65ZM304.58,190.35h-47.09c-3.63,0-6.65-3.02-6.65-6.65s3.02-6.74,6.65-6.74h47.09c3.63,0,6.65,2.94,6.65,6.74s-3.02,6.65-6.65,6.65Z"/>
    </g>
  </g>
</svg>