<?xml version="1.0" encoding="UTF-8"?>
<svg id="Layer_2" data-name="Layer 2" xmlns="http://www.w3.org/2000/svg" viewBox="0 0 51.8 52.63">
  <defs>
    <style>
      .cls-1 {
        fill: #fff;
      }
    </style>
  </defs>
  <g id="_11" data-name="11">
    <g>
      <path class="cls-1" d="M9.14,9.48c1.41,0,2.55-1.14,2.55-2.55V2.55c0-1.41-1.14-2.55-2.55-2.55s-2.55,1.14-2.55,2.55v4.38c0,1.41,1.14,2.55,2.55,2.55Z"/>
      <path class="cls-1" d="M42.64,9.48c1.41,0,2.55-1.14,2.55-2.55V2.55c0-1.41-1.14-2.55-2.55-2.55s-2.55,1.14-2.55,2.55v4.38c0,1.41,1.14,2.55,2.55,2.55Z"/>
      <path class="cls-1" d="M25.89,9.48c1.41,0,2.55-1.14,2.55-2.55V2.55c0-1.41-1.14-2.55-2.55-2.55s-2.55,1.14-2.55,2.55v4.38c0,1.41,1.14,2.55,2.55,2.55Z"/>
      <path class="cls-1" d="M40.65,44.84v7.8l11.14-11.14h-7.8c-1.85,0-3.34,1.5-3.34,3.34Z"/>
      <path class="cls-1" d="M48.46,5.58h-1.59v1.36c0,2.33-1.89,4.22-4.22,4.22s-4.22-1.89-4.22-4.22v-1.36h-8.3v1.36c0,2.33-1.89,4.22-4.22,4.22s-4.23-1.89-4.23-4.22v-1.36h-8.3v1.36c0,2.33-1.89,4.22-4.22,4.22s-4.22-1.89-4.22-4.22v-1.36h-1.58c-1.85,0-3.34,1.49-3.34,3.34v5.26h51.8v-5.26c0-1.85-1.5-3.34-3.34-3.34Z"/>
      <path class="cls-1" d="M32.26,29.14c.33.33.33.86,0,1.18l-5.4,5.4c2.44-.23,6.5-1.03,9.24-3.76,2.92-2.91,3.66-7.31,3.83-9.68.03-.42-.29-.8-.77-.77-2.36.17-6.77.89-9.69,3.8-2.74,2.73-3.55,6.77-3.79,9.21l5.39-5.39c.33-.33.86-.33,1.18,0Z"/>
      <path class="cls-1" d="M22.62,35.69l-4.28-4.28c-.33-.33-.33-.86,0-1.18s.86-.33,1.18,0l4.26,4.26c-.24-2.09-.97-5.29-3.17-7.49-2.48-2.47-6.22-3.08-8.23-3.23-.3-.02-.55.21-.53.53.15,2.01.77,5.75,3.25,8.22,2.21,2.21,5.42,2.92,7.51,3.15Z"/>
      <path class="cls-1" d="M0,49.29c0,1.85,1.49,3.34,3.34,3.34h35.65v-7.8c0-2.76,2.24-5.01,5.01-5.01h7.8V15.85H0v33.44ZM12.51,22.12c2.24.17,6.43.86,9.29,3.71,1.44,1.44,2.33,3.2,2.89,4.88.6-2.22,1.68-4.65,3.61-6.57,3.31-3.3,8.15-4.1,10.75-4.29,1.5-.1,2.66,1.17,2.55,2.56-.19,2.6-1.01,7.44-4.32,10.74-3.62,3.61-9.03,4.23-11.4,4.32.71,2.67.62,5.78-.31,9.69-.09.38-.43.63-.81.63-.52,0-.95-.49-.81-1.02.91-3.84.98-6.81.2-9.29-1.78-.03-6.87-.43-10.2-3.75-2.86-2.85-3.58-7.04-3.74-9.28-.1-1.36,1.03-2.42,2.32-2.33Z"/>
    </g>
  </g>
</svg>